<?xml version="1.0" encoding="UTF-8" standalone="no"?>
<svg
   xmlns:dc="http://purl.org/dc/elements/1.1/"
   xmlns:cc="http://creativecommons.org/ns#"
   xmlns:rdf="http://www.w3.org/1999/02/22-rdf-syntax-ns#"
   xmlns:svg="http://www.w3.org/2000/svg"
   xmlns="http://www.w3.org/2000/svg"
   xmlns:sodipodi="http://sodipodi.sourceforge.net/DTD/sodipodi-0.dtd"
   xmlns:inkscape="http://www.inkscape.org/namespaces/inkscape"
   width="584pt"
   height="609pt"
   viewBox="0 0 584 609"
   version="1.1"
   id="svg4256"
   inkscape:version="0.91 r13725"
   sodipodi:docname="Untitled-2.svg">
  <metadata
     id="metadata4293">
    <rdf:RDF>
      <cc:Work
         rdf:about="">
        <dc:format>image/svg+xml</dc:format>
        <dc:type
           rdf:resource="http://purl.org/dc/dcmitype/StillImage" />
      </cc:Work>
    </rdf:RDF>
  </metadata>
  <defs
     id="defs4291" />
  <sodipodi:namedview
     pagecolor="#ffffff"
     bordercolor="#666666"
     borderopacity="1"
     objecttolerance="10"
     gridtolerance="10"
     guidetolerance="10"
     inkscape:pageopacity="0"
     inkscape:pageshadow="2"
     inkscape:window-width="1440"
     inkscape:window-height="803"
     id="namedview4289"
     showgrid="false"
     inkscape:zoom="1.4142136"
     inkscape:cx="301.99434"
     inkscape:cy="418.39192"
     inkscape:window-x="0"
     inkscape:window-y="0"
     inkscape:window-maximized="1"
     inkscape:current-layer="svg4256" />
  <path
     inkscape:connector-curvature="0"
     id="path4259"
     d="m 499.59676,263.27339 c 26.01563,-15.01953 44.4375,-40.375 50.6836,-69.75782 6.24609,-29.38281 -0.26953,-60.03515 -17.92969,-84.33984 -17.65625,-24.304692 -44.79688,-39.972662 -74.67188,-43.113282 -29.875,-3.14062 -59.67968,6.54297 -82.0039,26.64453 -22.32422,20.101562 -35.07031,48.730472 -35.07031,78.769532"
     style="fill:none;stroke:#000000;stroke-width:4;stroke-linecap:square;stroke-linejoin:miter;stroke-miterlimit:3.25;stroke-opacity:1;stroke-dasharray:none" />
  <path
     inkscape:connector-curvature="0"
     id="path4261"
     d="m 181.58895,79.664008 c -26.01562,-15.01953 -57.18359,-18.29687 -85.753914,-9.01562 -28.57031,9.28515 -51.85937,30.253902 -64.07812,57.699222 -12.21875,27.4414 -12.21875,58.78125 0,86.22265 12.21875,27.44531 35.50781,48.41406 64.07812,57.69531 28.570324,9.28516 59.738294,6.00782 85.753914,-9.01171"
     style="fill:none;stroke:#000000;stroke-width:4;stroke-linecap:square;stroke-linejoin:miter;stroke-miterlimit:3.25;stroke-opacity:1;stroke-dasharray:none" />
  <path
     inkscape:connector-curvature="0"
     id="path4263"
     d="m 181.58114,446.87104 c 0,30.03907 12.74609,58.67188 35.07031,78.76953 22.32422,20.10157 52.12891,29.78516 82.00391,26.64844 29.8789,-3.14062 57.01562,-18.8125 74.67578,-43.11328 17.65625,-24.30469 24.17187,-54.95703 17.92578,-84.33984 -6.24609,-29.38672 -24.66797,-54.73828 -50.67969,-69.75782"
     style="fill:none;stroke:#000000;stroke-width:4;stroke-linecap:square;stroke-linejoin:miter;stroke-miterlimit:3.25;stroke-opacity:1;stroke-dasharray:none" />
  <path
     inkscape:connector-curvature="0"
     id="path4265"
     d="m 75.585036,263.25776 c 0,28.11328 11.16797,55.07422 31.046884,74.94922 19.875,19.87891 46.83594,31.04688 74.94922,31.04688 28.11328,0 55.07422,-11.16797 74.94922,-31.04688 19.8789,-19.875 31.04687,-46.83594 31.04687,-74.94922"
     style="fill:none;stroke:#000000;stroke-width:1;stroke-linecap:square;stroke-linejoin:miter;stroke-miterlimit:3.25;stroke-opacity:1" />
  <path
     inkscape:connector-curvature="0"
     id="path4267"
     d="m 393.58114,446.87495 c 24.34375,-14.05469 42.10937,-37.20703 49.38672,-64.35938 7.27343,-27.15625 3.46484,-56.08593 -10.58985,-80.43359 -14.05468,-24.34375 -37.20703,-42.10937 -64.36328,-49.38672 -27.15234,-7.27344 -56.08594,-3.46484 -80.42969,10.58985"
     style="fill:none;stroke:#000000;stroke-width:1;stroke-linecap:square;stroke-linejoin:miter;stroke-miterlimit:3.25;stroke-opacity:1" />
  <path
     inkscape:connector-curvature="0"
     id="path4269"
     d="m 393.60067,79.675728 c -24.34375,-14.05859 -53.27734,-17.86719 -80.42969,-10.58984 -27.15625,7.27734 -50.30859,25.03906 -64.36328,49.386722 -14.05469,24.34375 -17.86328,53.27734 -10.58984,80.42968 7.27734,27.15625 25.04297,50.3086 49.38672,64.36328"
     style="fill:none;stroke:#000000;stroke-width:1;stroke-linecap:square;stroke-linejoin:miter;stroke-miterlimit:3.25;stroke-opacity:1" />
  <path
     inkscape:connector-curvature="0"
     id="path4271"
     d="m 75.585036,263.25776 c 0,28.11328 11.16797,55.07422 31.046884,74.94922 19.875,19.87891 46.83594,31.04688 74.94922,31.04688 28.11328,0 55.07422,-11.16797 74.94922,-31.04688 19.8789,-19.875 31.04687,-46.83594 31.04687,-74.94922"
     style="fill:none;stroke:#000000;stroke-width:4;stroke-linecap:square;stroke-linejoin:miter;stroke-miterlimit:3.25;stroke-opacity:1;stroke-dasharray:none" />
  <path
     inkscape:connector-curvature="0"
     id="path4273"
     d="m 393.58114,446.87495 c 24.34375,-14.05469 42.10937,-37.20703 49.38672,-64.35938 7.27343,-27.15625 3.46484,-56.08593 -10.58985,-80.43359 -14.05468,-24.34375 -37.20703,-42.10937 -64.36328,-49.38672 -27.15234,-7.27344 -56.08594,-3.46484 -80.42969,10.58985"
     style="fill:none;stroke:#000000;stroke-width:4;stroke-linecap:square;stroke-linejoin:miter;stroke-miterlimit:3.25;stroke-opacity:1;stroke-dasharray:none" />
  <path
     inkscape:connector-curvature="0"
     id="path4275"
     d="m 393.60067,79.675728 c -24.34375,-14.05859 -53.27734,-17.86719 -80.42969,-10.58984 -27.15625,7.27734 -50.30859,25.03906 -64.36328,49.386722 -14.05469,24.34375 -17.86328,53.27734 -10.58984,80.42968 7.27734,27.15625 25.04297,50.3086 49.38672,64.36328"
     style="fill:none;stroke:#000000;stroke-width:4;stroke-linecap:square;stroke-linejoin:miter;stroke-miterlimit:3.25;stroke-opacity:1;stroke-dasharray:none" />
  <path
     inkscape:connector-curvature="0"
     id="path4277"
     d="m 287.59286,79.664008 c -26.01563,-15.01953 -57.1836,-18.29687 -85.75391,-9.01562 -28.56641,9.28515 -51.85937,30.253902 -64.07422,57.699222 -12.21875,27.4414 -12.21875,58.78125 0,86.22265 12.21485,27.44531 35.50781,48.41406 64.07422,57.69531 28.57031,9.28516 59.73828,6.00782 85.75391,-9.01171"
     style="fill:none;stroke:#000000;stroke-width:1;stroke-linecap:square;stroke-linejoin:miter;stroke-miterlimit:3.25;stroke-opacity:1" />
  <path
     inkscape:connector-curvature="0"
     id="path4279"
     d="m 128.57723,355.07026 c 0,30.03906 12.75,58.66797 35.07422,78.76953 22.32422,20.10157 52.12891,29.78516 82.00391,26.64453 29.875,-3.14062 57.01562,-18.80859 74.67187,-43.11328 17.65625,-24.30078 24.17188,-54.95703 17.92578,-84.33984 -6.24218,-29.38281 -24.66406,-54.73828 -50.67968,-69.75781"
     style="fill:none;stroke:#000000;stroke-width:1;stroke-linecap:square;stroke-linejoin:miter;stroke-miterlimit:3.25;stroke-opacity:1" />
  <path
     inkscape:connector-curvature="0"
     id="path4281"
     d="m 446.60067,355.07807 c 26.01172,-15.02343 44.43359,-40.375 50.67969,-69.75781 6.24609,-29.38672 -0.26953,-60.03906 -17.92578,-84.34375 -17.66016,-24.30078 -44.79688,-39.96875 -74.67579,-43.10937 -29.875,-3.14063 -59.67968,6.54297 -82.0039,26.64453 -22.32422,20.10156 -35.07031,48.73047 -35.07031,78.76953"
     style="fill:none;stroke:#000000;stroke-width:1;stroke-linecap:square;stroke-linejoin:miter;stroke-miterlimit:3.25;stroke-opacity:1" />
  <path
     inkscape:connector-curvature="0"
     id="path4283"
     d="m 287.59286,79.664008 c -26.01563,-15.01953 -57.1836,-18.29687 -85.75391,-9.01562 -28.56641,9.28515 -51.85937,30.253902 -64.07422,57.699222 -12.21875,27.4414 -12.21875,58.78125 0,86.22265 12.21485,27.44531 35.50781,48.41406 64.07422,57.69531 28.57031,9.28516 59.73828,6.00782 85.75391,-9.01171"
     style="fill:none;stroke:#000000;stroke-width:4;stroke-linecap:square;stroke-linejoin:miter;stroke-miterlimit:3.25;stroke-opacity:1;stroke-dasharray:none" />
  <path
     inkscape:connector-curvature="0"
     id="path4285"
     d="m 128.57723,355.07026 c 0,30.03906 12.75,58.66797 35.07422,78.76953 22.32422,20.10157 52.12891,29.78516 82.00391,26.64453 29.875,-3.14062 57.01562,-18.80859 74.67187,-43.11328 17.65625,-24.30078 24.17188,-54.95703 17.92578,-84.33984 -6.24218,-29.38281 -24.66406,-54.73828 -50.67968,-69.75781"
     style="fill:none;stroke:#000000;stroke-width:4;stroke-linecap:square;stroke-linejoin:miter;stroke-miterlimit:3.25;stroke-opacity:1;stroke-dasharray:none" />
  <path
     inkscape:connector-curvature="0"
     id="path4287"
     d="m 446.60067,355.07807 c 26.01172,-15.02343 44.43359,-40.375 50.67969,-69.75781 6.24609,-29.38672 -0.26953,-60.03906 -17.92578,-84.34375 -17.66016,-24.30078 -44.79688,-39.96875 -74.67579,-43.10937 -29.875,-3.14063 -59.67968,6.54297 -82.0039,26.64453 -22.32422,20.10156 -35.07031,48.73047 -35.07031,78.76953"
     style="fill:none;stroke:#000000;stroke-width:4;stroke-linecap:square;stroke-linejoin:miter;stroke-miterlimit:3.25;stroke-opacity:1;stroke-dasharray:none" />
  <path
     style="fill:#f9a4ff;fill-opacity:1;stroke:#000000;stroke-width:6.33319473;stroke-miterlimit:3.25;stroke-dasharray:none;stroke-opacity:1"
     d="m 338.90724,686.52766 c -1.74163,-0.29277 -7.3754,-1.65933 -12.5195,-3.0368 -50.71497,-13.58033 -87.73348,-55.87005 -95.14144,-108.68901 -0.72294,-5.15461 -1.10707,-9.57939 -0.85361,-9.83285 0.25346,-0.25346 3.7469,0.99242 7.76319,2.76861 50.69482,22.41965 110.88755,11.40076 150.01464,-27.46174 21.39869,-21.25397 34.58942,-47.18144 38.88554,-76.43269 1.02317,-6.96652 1.98847,-13.1034 2.14513,-13.63752 0.15666,-0.53412 4.90505,2.68225 10.55198,7.14749 21.73458,17.18636 37.47571,41.36045 45.0527,69.18866 2.56131,9.40703 2.92227,13.56518 2.85886,32.93261 -0.0669,20.40456 -0.34764,23.07216 -3.53359,33.56593 -14.73212,48.52429 -51.32611,82.35846 -99.88816,92.35489 -9.09457,1.8721 -36.81622,2.56455 -45.33574,1.13242 z"
     id="path4310"
     inkscape:connector-curvature="0"
     transform="scale(0.8,0.8)" />
  <path
     style="fill:#ff91fe;fill-opacity:1;stroke:#000000;stroke-width:6.33319473;stroke-miterlimit:3.25;stroke-dasharray:none;stroke-opacity:1"
     d="m 493.69899,541.12725 c -2.68422,-21.25234 -11.33186,-43.423 -23.91451,-61.3117 -7.23846,-10.2909 -24.32165,-27.11022 -33.59083,-33.072 l -6.89265,-4.43323 -1.43597,-12.66639 c -4.2604,-37.57988 -24.1402,-72.78803 -53.10865,-94.05816 -9.47285,-6.95545 -9.47652,-6.94745 5.9103,-12.88124 15.63732,-6.03039 29.58451,-8.07606 50.07188,-7.34417 21.92482,0.78324 32.87399,3.49766 51.9322,12.87456 42.31786,20.82096 69.34136,61.58868 72.09317,108.75992 1.59889,27.40818 -6.41974,56.25417 -22.11738,79.56437 -6.29536,9.3483 -23.28465,26.74875 -31.68334,32.45012 l -5.77367,3.91941 -1.49055,-11.80149 z"
     id="path4312"
     inkscape:connector-curvature="0"
     transform="scale(0.8,0.8)" />
  <path
     style="fill:#ff9f99;fill-opacity:1;stroke:#000000;stroke-width:6.33319473;stroke-miterlimit:3.25;stroke-dasharray:none;stroke-opacity:1"
     d="m 560.15784,428.69395 c -4.27462,-50.13685 -41.31913,-96.22248 -90.90098,-113.08636 -32.32577,-10.99471 -72.88707,-8.7141 -101.1119,5.68513 l -5.54627,2.8295 0.88164,-8.67114 c 7.48524,-73.61837 77.00996,-126.18942 150.31653,-113.6617 68.41003,11.69092 115.42647,75.73101 106.31513,144.80956 -3.76737,28.56268 -20.09219,59.49536 -41.27456,78.20805 -7.21869,6.37704 -16.11982,13.07009 -17.382,13.07009 -0.28305,0 -0.86697,-4.13241 -1.29759,-9.18313 z"
     id="path4314"
     inkscape:connector-curvature="0"
     transform="scale(0.8,0.8)" />
  <path
     style="fill:#ffba00;fill-opacity:1;stroke:#000000;stroke-width:6.33319473;stroke-miterlimit:3.25;stroke-dasharray:none;stroke-opacity:1"
     d="M 627.06207,316.5964 C 623.54255,289.9296 616.10872,270.08583 602.3168,250.54159 577.56617,215.46803 535.06413,193.4307 492.17055,193.4307 c -17.83277,0 -43.36245,5.69473 -57.21774,12.76317 -2.80118,1.42906 -5.35816,2.33319 -5.68217,2.00917 -0.32401,-0.32401 0.0571,-5.30857 0.84685,-11.07679 3.96188,-28.93593 18.52495,-57.03014 39.93433,-77.0389 39.75976,-37.158656 97.51565,-45.535666 145.96642,-21.171205 32.64347,16.415445 56.07862,44.816435 67.00233,81.199915 3.17012,10.55867 3.42264,13.0819 3.42264,34.19925 0,21.19729 -0.24282,23.60061 -3.45538,34.19925 -6.82479,22.5159 -17.24999,40.61917 -31.99443,55.55805 -7.93475,8.03941 -20.61039,18.54033 -22.38,18.54033 -0.41649,0 -1.11459,-2.70744 -1.55133,-6.01654 z"
     id="path4316"
     inkscape:connector-curvature="0"
     transform="scale(0.8,0.8)" />
  <path
     style="fill:#bfd200;fill-opacity:1;stroke:#000000;stroke-width:6.33319473;stroke-miterlimit:3.25;stroke-dasharray:none;stroke-opacity:1"
     d="m 346.75689,316.59299 c -23.62184,-17.83249 -41.18807,-46.15273 -47.81411,-77.08582 -2.83642,-13.24159 -2.83642,-37.14213 0,-50.38373 6.38328,-29.79976 22.32964,-56.38861 44.71719,-74.56109 32.09236,-26.050085 74.64971,-35.648277 113.67801,-25.638422 8.98804,2.305225 27.23274,9.418076 27.23274,10.616918 0,0.461044 -3.43692,3.341074 -7.63758,6.400084 -28.8169,20.98499 -49.13298,56.76594 -53.36557,93.98812 l -1.40109,12.32143 -11.03349,8.23933 c -29.44967,21.99171 -48.64355,54.78091 -53.57416,91.52154 l -1.55197,11.56459 -9.24997,-6.98295 z"
     id="path4318"
     inkscape:connector-curvature="0"
     transform="scale(0.8,0.8)" />
  <path
     style="fill:#56e318;fill-opacity:1;stroke:#000000;stroke-width:6.33319473;stroke-miterlimit:3.25;stroke-dasharray:none;stroke-opacity:1"
     d="m 277.47525,342.71784 c -20.57745,-2.57034 -46.01463,-12.90982 -62.12514,-25.25209 -22.91939,-17.55858 -39.75224,-42.91089 -47.73556,-71.89558 -3.89163,-14.12918 -3.89163,-48.38054 0,-62.50973 6.31726,-22.93577 16.86775,-41.74878 32.39826,-57.77062 11.66271,-12.03168 19.09265,-17.62295 33.7634,-25.408059 34.40447,-18.256912 76.31555,-19.739252 111.17727,-3.932195 l 8.38606,3.802421 -6.8995,4.643433 c -16.7168,11.25061 -35.98809,35.16611 -44.87077,55.68424 -8.41478,19.43733 -10.16099,28.75796 -10.16099,54.23565 0,20.85479 0.28837,23.82588 3.38082,34.83257 4.3399,15.44667 9.45341,26.72028 18.22045,40.1701 7.88174,12.09165 23.04068,27.92475 33.43049,34.91722 l 6.8995,4.64343 -8.43402,3.82416 c -10.81176,4.90229 -24.07827,8.4738 -37.63103,10.13077 -12.13466,1.48358 -17.15155,1.4641 -29.79924,-0.11577 l 0,5e-5 z"
     id="path4320"
     inkscape:connector-curvature="0"
     transform="scale(0.8,0.8)" />
  <path
     style="fill:#00eabd;fill-opacity:1;stroke:#000000;stroke-width:6.33319473;stroke-miterlimit:3.25;stroke-dasharray:none;stroke-opacity:1"
     d="M 150.17804,343.36879 C 131.04913,341.12161 113.81928,335.95838 99.772406,328.26387 67.28243,310.46669 44.832121,281.69044 35.287441,245.60865 c -2.800724,-10.58758 -3.252056,-14.9306 -3.252056,-31.29334 0,-16.36275 0.451332,-20.70576 3.252056,-31.29335 13.1535,-49.72422 52.320937,-86.490908 102.401609,-96.124934 13.12444,-2.524751 37.88207,-1.953843 50.75086,1.170309 11.81594,2.868556 31.40888,9.978488 31.39462,11.392556 -0.005,0.471853 -2.14066,2.282879 -4.74643,4.024509 -8.32988,5.56747 -26.50599,23.93722 -32.98205,33.33344 -32.43811,47.06493 -32.43811,107.93 0,154.99493 6.47606,9.39622 24.65217,27.76597 32.98205,33.33344 2.60577,1.74163 4.74166,3.55266 4.74643,4.02451 0.0143,1.42154 -19.65173,8.54803 -30.7613,11.14716 -10.43416,2.44109 -30.61282,4.02389 -38.89519,3.05091 z"
     id="path4322"
     inkscape:connector-curvature="0"
     transform="scale(0.8,0.8)" />
  <path
     style="fill:#00e3ff;fill-opacity:1;stroke:#000000;stroke-width:6.33319473;stroke-miterlimit:3.25;stroke-dasharray:none;stroke-opacity:1"
     d="m 200.84359,455.71203 c -15.24203,-3.4028 -36.73253,-11.71524 -36.73253,-14.20801 0,-0.60151 -0.76559,-1.09366 -1.70131,-1.09366 -3.17452,0 -19.15781,-12.31566 -28.15611,-21.69522 -20.29595,-21.15592 -33.29428,-48.54723 -35.637569,-75.09886 -0.640323,-7.25546 -0.466339,-8.62994 1.011513,-7.99099 23.206666,10.03341 38.784376,13.59046 60.069476,13.71637 22.19309,0.13129 39.12864,-3.41016 58.48036,-12.22902 l 9.45968,-4.31091 6.2093,3.14649 c 34.33833,17.40054 79.80653,18.14821 114.84165,1.88842 l 7.88086,-3.6575 -0.6933,5.93331 c -5.17147,44.25836 -27.60193,79.44134 -64.16031,100.63769 -20.48538,11.87732 -36.4446,16.24429 -61.73901,16.89386 -14.70072,0.37751 -20.51503,-0.008 -29.1327,-1.93197 z"
     id="path4324"
     inkscape:connector-curvature="0"
     transform="scale(0.8,0.8)" />
  <path
     style="fill:#87c8ff;fill-opacity:1;stroke:#000000;stroke-width:6.33319473;stroke-miterlimit:3.25;stroke-dasharray:none;stroke-opacity:1"
     d="m 275.95758,572.06414 c -47.30692,-6.15871 -89.48786,-40.8 -104.91701,-86.1636 -3.31774,-9.75454 -6.92951,-26.94918 -6.92951,-32.98946 l 0,-3.68574 4.7499,2.39678 c 25.24,12.73598 62.36767,16.2191 91.77535,8.60987 46.89857,-12.13501 83.1372,-47.52922 96.77033,-94.51542 1.71209,-5.90069 3.46527,-14.89704 3.89594,-19.99189 0.43067,-5.09485 1.21222,-9.52862 1.73679,-9.85282 1.5124,-0.93472 15.0434,9.79682 23.44865,18.59732 42.15724,44.13967 47.75308,112.49672 13.29021,162.34903 -27.80075,40.2152 -75.56784,61.52779 -123.82065,55.24593 z"
     id="path4326"
     inkscape:connector-curvature="0"
     transform="scale(0.8,0.8)" />
</svg>
